<svg width="385" height="400" viewBox="0 0 385 400" fill="none" xmlns="http://www.w3.org/2000/svg">
<path d="M89.4336 376C89.4336 370.477 93.9107 366 99.4336 366H333.356C338.879 366 343.356 370.477 343.356 376V400H89.4336V376Z" fill="#C4C4C4"/>
<ellipse cx="216.904" cy="345.5" rx="20.8217" ry="20.5" fill="#85921B"/>
<path d="M262.11 336.612C262.153 337.261 262.182 337.913 262.196 338.569L261.696 338.58C261.704 338.903 261.707 339.227 261.707 339.552C261.707 339.877 261.704 340.201 261.696 340.524L262.196 340.535C262.182 341.191 262.153 341.843 262.11 342.491L261.611 342.458C261.568 343.105 261.512 343.748 261.441 344.387L261.938 344.442C261.865 345.093 261.779 345.741 261.678 346.383L261.184 346.306C261.084 346.946 260.97 347.582 260.843 348.213L261.333 348.312C261.203 348.955 261.058 349.592 260.901 350.224L260.415 350.103C260.259 350.731 260.088 351.354 259.904 351.971L260.383 352.114C260.196 352.741 259.996 353.363 259.782 353.979L259.31 353.815C259.097 354.426 258.872 355.031 258.633 355.629L259.098 355.814C258.856 356.422 258.6 357.023 258.332 357.618L257.876 357.412C257.611 358.001 257.332 358.584 257.041 359.159L257.487 359.385C257.192 359.969 256.884 360.545 256.564 361.113L256.129 360.868C255.812 361.431 255.482 361.987 255.142 362.535L255.566 362.799C255.221 363.354 254.863 363.901 254.494 364.439L254.082 364.156C253.717 364.689 253.34 365.214 252.952 365.73L253.351 366.031C252.959 366.553 252.555 367.066 252.14 367.571L251.754 367.253C251.344 367.752 250.922 368.242 250.491 368.722L250.863 369.056C250.426 369.542 249.979 370.018 249.522 370.485L249.165 370.135C248.713 370.596 248.251 371.048 247.779 371.489L248.121 371.854C247.644 372.3 247.157 372.736 246.661 373.161L246.336 372.782C245.846 373.202 245.346 373.612 244.838 374.011L245.147 374.404C244.633 374.807 244.111 375.199 243.58 375.581L243.288 375.174C242.764 375.551 242.231 375.916 241.69 376.27L241.964 376.688C241.418 377.045 240.863 377.391 240.301 377.725L240.046 377.295C239.491 377.625 238.928 377.943 238.359 378.249L238.595 378.689C238.021 378.998 237.439 379.294 236.85 379.579L236.632 379.129C236.052 379.409 235.464 379.677 234.87 379.933L235.068 380.392C234.469 380.65 233.864 380.895 233.252 381.128L233.074 380.66C232.472 380.889 231.863 381.106 231.249 381.31L231.406 381.784C230.788 381.989 230.164 382.181 229.534 382.36L229.397 381.879C228.777 382.056 228.152 382.219 227.522 382.369L227.638 382.855C227.004 383.006 226.366 383.144 225.722 383.269L225.627 382.778C224.995 382.9 224.358 383.009 223.716 383.105L223.79 383.599C223.146 383.695 222.499 383.778 221.847 383.847L221.794 383.35C221.155 383.417 220.511 383.472 219.864 383.512L219.896 384.011C219.247 384.052 218.595 384.08 217.939 384.094L217.929 383.594C217.605 383.601 217.281 383.604 216.956 383.604C216.631 383.604 216.307 383.601 215.984 383.594L215.973 384.094C215.317 384.08 214.665 384.052 214.016 384.011L214.048 383.512C213.401 383.472 212.757 383.417 212.118 383.35L212.065 383.847C211.413 383.778 210.766 383.695 210.122 383.599L210.196 383.105C209.555 383.009 208.917 382.9 208.285 382.778L208.19 383.269C207.547 383.144 206.908 383.006 206.274 382.855L206.39 382.369C205.76 382.219 205.135 382.056 204.515 381.879L204.379 382.36C203.749 382.181 203.124 381.989 202.506 381.784L202.663 381.31C202.049 381.106 201.44 380.889 200.838 380.66L200.66 381.128C200.049 380.895 199.443 380.65 198.845 380.392L199.042 379.933C198.448 379.677 197.86 379.409 197.28 379.129L197.063 379.579C196.473 379.294 195.891 378.998 195.317 378.689L195.554 378.249C194.984 377.943 194.421 377.625 193.867 377.295L193.611 377.725C193.049 377.391 192.495 377.045 191.949 376.688L192.222 376.27C191.681 375.916 191.148 375.551 190.624 375.174L190.332 375.581C189.801 375.199 189.279 374.807 188.765 374.404L189.074 374.011C188.566 373.612 188.066 373.202 187.576 372.782L187.251 373.161C186.755 372.736 186.268 372.3 185.792 371.854L186.133 371.489C185.661 371.048 185.199 370.596 184.747 370.135L184.39 370.485C183.933 370.018 183.486 369.542 183.049 369.056L183.421 368.722C182.99 368.242 182.569 367.752 182.158 367.253L181.772 367.571C181.357 367.066 180.953 366.553 180.561 366.031L180.96 365.73C180.572 365.214 180.196 364.689 179.83 364.156L179.418 364.439C179.049 363.901 178.692 363.354 178.346 362.799L178.771 362.535C178.43 361.987 178.101 361.431 177.784 360.868L177.348 361.113C177.028 360.545 176.72 359.969 176.425 359.385L176.871 359.159C176.58 358.584 176.302 358.001 176.036 357.412L175.58 357.618C175.312 357.023 175.057 356.422 174.814 355.814L175.279 355.629C175.04 355.031 174.815 354.426 174.602 353.815L174.13 353.979C173.916 353.363 173.716 352.741 173.529 352.114L174.008 351.971C173.824 351.354 173.654 350.731 173.497 350.103L173.012 350.224C172.854 349.592 172.71 348.955 172.58 348.312L173.07 348.213C172.942 347.582 172.828 346.946 172.728 346.306L172.234 346.383C172.133 345.741 172.047 345.093 171.975 344.442L172.472 344.387C172.401 343.748 172.344 343.105 172.301 342.458L171.802 342.491C171.759 341.843 171.73 341.191 171.716 340.535L172.216 340.524C172.209 340.201 172.205 339.877 172.205 339.552C172.205 339.227 172.209 338.903 172.216 338.58L171.716 338.569C171.73 337.913 171.759 337.261 171.802 336.613L172.301 336.646C172.344 335.999 172.401 335.356 172.472 334.717L171.975 334.662C172.047 334.01 172.133 333.363 172.234 332.721L172.728 332.798C172.828 332.158 172.942 331.522 173.07 330.891L172.58 330.792C172.71 330.149 172.854 329.512 173.012 328.88L173.497 329.001C173.654 328.373 173.824 327.75 174.008 327.133L173.529 326.99C173.716 326.363 173.916 325.741 174.13 325.125L174.602 325.289C174.815 324.678 175.04 324.073 175.279 323.475L174.814 323.29C175.057 322.682 175.312 322.081 175.58 321.486L176.036 321.692C176.302 321.102 176.58 320.52 176.871 319.944L176.425 319.719C176.72 319.135 177.028 318.559 177.348 317.991L177.784 318.236C178.101 317.673 178.43 317.117 178.771 316.569L178.346 316.305C178.692 315.75 179.049 315.203 179.418 314.665L179.83 314.947C180.196 314.414 180.572 313.89 180.96 313.374L180.561 313.073C180.953 312.551 181.357 312.038 181.772 311.533L182.158 311.851C182.569 311.352 182.99 310.862 183.421 310.382L183.049 310.048C183.486 309.562 183.933 309.085 184.39 308.619L184.747 308.969C185.199 308.508 185.661 308.056 186.133 307.615L185.792 307.25C186.268 306.804 186.755 306.368 187.251 305.943L187.576 306.322C188.066 305.902 188.566 305.492 189.074 305.093L188.765 304.7C189.279 304.297 189.801 303.904 190.332 303.523L190.624 303.93C191.148 303.553 191.681 303.188 192.222 302.834L191.949 302.416C192.495 302.059 193.049 301.713 193.611 301.379L193.867 301.809C194.421 301.479 194.984 301.161 195.554 300.855L195.317 300.415C195.891 300.106 196.473 299.809 197.063 299.525L197.28 299.975C197.86 299.695 198.448 299.427 199.042 299.171L198.845 298.712C199.443 298.454 200.049 298.209 200.66 297.976L200.838 298.444C201.44 298.215 202.049 297.998 202.663 297.794L202.506 297.32C203.124 297.115 203.749 296.923 204.379 296.744L204.515 297.224C205.135 297.048 205.76 296.885 206.39 296.735L206.274 296.248C206.908 296.098 207.547 295.96 208.19 295.835L208.285 296.326C208.917 296.204 209.555 296.095 210.196 295.999L210.122 295.505C210.766 295.409 211.413 295.326 212.065 295.257L212.118 295.754C212.757 295.687 213.401 295.632 214.048 295.592L214.016 295.093C214.665 295.052 215.317 295.024 215.973 295.01L215.984 295.51C216.307 295.503 216.631 295.5 216.956 295.5C217.281 295.5 217.605 295.503 217.928 295.51L217.939 295.01C218.595 295.024 219.247 295.052 219.896 295.093L219.864 295.592C220.511 295.632 221.155 295.687 221.794 295.754L221.847 295.257C222.499 295.326 223.146 295.409 223.79 295.505L223.716 295.999C224.358 296.095 224.995 296.204 225.627 296.326L225.722 295.835C226.366 295.96 227.004 296.098 227.638 296.248L227.522 296.735C228.152 296.885 228.777 297.048 229.397 297.224L229.534 296.744C230.164 296.923 230.788 297.115 231.406 297.32L231.249 297.794C231.863 297.998 232.472 298.215 233.074 298.444L233.252 297.976C233.864 298.209 234.469 298.454 235.068 298.712L234.87 299.171C235.464 299.427 236.052 299.695 236.632 299.975L236.85 299.525C237.439 299.809 238.021 300.106 238.595 300.415L238.359 300.855C238.928 301.161 239.491 301.479 240.046 301.809L240.301 301.379C240.863 301.713 241.418 302.059 241.964 302.416L241.69 302.834C242.231 303.188 242.764 303.553 243.288 303.93L243.58 303.523C244.111 303.904 244.633 304.297 245.147 304.7L244.838 305.093C245.346 305.492 245.846 305.902 246.336 306.322L246.661 305.943C247.157 306.368 247.644 306.804 248.121 307.25L247.779 307.615C248.251 308.056 248.713 308.508 249.165 308.969L249.522 308.619C249.979 309.085 250.426 309.562 250.863 310.048L250.491 310.382C250.922 310.862 251.344 311.352 251.754 311.851L252.14 311.533C252.555 312.038 252.959 312.551 253.351 313.073L252.952 313.374C253.34 313.89 253.717 314.414 254.082 314.947L254.494 314.665C254.863 315.203 255.221 315.75 255.566 316.305L255.141 316.569C255.482 317.117 255.812 317.673 256.129 318.236L256.564 317.991C256.884 318.559 257.192 319.135 257.487 319.719L257.041 319.944C257.332 320.52 257.611 321.102 257.876 321.692L258.332 321.486C258.6 322.081 258.856 322.682 259.098 323.29L258.633 323.475C258.872 324.073 259.097 324.678 259.31 325.289L259.782 325.125C259.996 325.741 260.196 326.363 260.383 326.99L259.904 327.133C260.088 327.75 260.259 328.373 260.415 329.001L260.901 328.88C261.058 329.512 261.203 330.149 261.333 330.792L260.843 330.891C260.97 331.522 261.084 332.158 261.184 332.798L261.678 332.721C261.779 333.363 261.865 334.01 261.938 334.662L261.441 334.717C261.512 335.356 261.568 335.999 261.611 336.646L262.11 336.612Z" stroke="#C792D9" stroke-dasharray="2 2"/>
<path d="M277.854 339.5C277.854 372.63 250.573 399.5 216.904 399.5C183.236 399.5 155.955 372.63 155.955 339.5C155.955 306.37 183.236 279.5 216.904 279.5C250.573 279.5 277.854 306.37 277.854 339.5Z" stroke="#BABABA"/>
<path d="M285.986 259.372V253.972H280.586V251.812H285.986V246.448H288.11V251.812H293.546V253.972H288.11V259.372H285.986ZM300.075 259.624H309.831V262H297.447V259.156C297.447 257.068 297.495 255.58 297.591 254.692C297.687 253.78 297.939 253.036 298.347 252.46C298.755 251.86 299.451 251.284 300.435 250.732C301.275 250.204 302.835 249.268 305.115 247.924C305.955 247.444 306.495 246.904 306.735 246.304C306.999 245.704 307.131 244.78 307.131 243.532C307.131 242.332 307.011 241.444 306.771 240.868C306.555 240.268 306.159 239.86 305.583 239.644C305.031 239.428 304.191 239.32 303.063 239.32C301.719 239.32 299.967 239.452 297.807 239.716V237.52C298.527 237.352 299.439 237.22 300.543 237.124C301.671 237.004 302.739 236.944 303.747 236.944C305.091 236.944 306.183 237.088 307.023 237.376C307.887 237.64 308.571 238.228 309.075 239.14C309.579 240.052 309.831 241.408 309.831 243.208C309.831 244.576 309.723 245.68 309.507 246.52C309.315 247.336 308.991 248.008 308.535 248.536C308.103 249.04 307.491 249.52 306.699 249.976L301.551 252.964C300.975 253.3 300.591 253.684 300.399 254.116C300.255 254.428 300.159 254.86 300.111 255.412C300.087 255.94 300.075 256.744 300.075 257.824V259.624ZM320.183 262.288C317.999 262.288 316.451 261.976 315.539 261.352C314.627 260.704 314.039 259.564 313.775 257.932C313.511 256.276 313.379 253.504 313.379 249.616C313.379 245.728 313.511 242.968 313.775 241.336C314.039 239.68 314.627 238.54 315.539 237.916C316.451 237.268 317.999 236.944 320.183 236.944C322.415 236.944 323.987 237.268 324.899 237.916C325.811 238.54 326.387 239.656 326.627 241.264C326.867 242.848 326.987 245.632 326.987 249.616C326.987 253.504 326.855 256.276 326.591 257.932C326.327 259.564 325.739 260.704 324.827 261.352C323.915 261.976 322.367 262.288 320.183 262.288ZM320.183 259.912C321.551 259.912 322.487 259.732 322.991 259.372C323.519 259.012 323.867 258.172 324.035 256.852C324.203 255.508 324.287 253.096 324.287 249.616C324.287 246.136 324.203 243.736 324.035 242.416C323.867 241.072 323.519 240.22 322.991 239.86C322.487 239.5 321.551 239.32 320.183 239.32C318.791 239.32 317.831 239.5 317.303 239.86C316.799 240.22 316.463 241.06 316.295 242.38C316.151 243.7 316.079 246.112 316.079 249.616C316.079 253.12 316.151 255.532 316.295 256.852C316.463 258.172 316.799 259.012 317.303 259.372C317.831 259.732 318.791 259.912 320.183 259.912ZM331.176 243.64H333.408L333.552 246.196H333.768C334.104 245.092 334.644 244.348 335.388 243.964C336.156 243.556 337.08 243.352 338.16 243.352C339.576 243.352 340.656 243.616 341.4 244.144C342.144 244.672 342.66 245.608 342.948 246.952C343.26 248.272 343.416 250.216 343.416 252.784C343.416 255.376 343.272 257.344 342.984 258.688C342.696 260.008 342.18 260.944 341.436 261.496C340.692 262.024 339.612 262.288 338.196 262.288C337.068 262.288 336.156 262.096 335.46 261.712C334.764 261.328 334.248 260.68 333.912 259.768H333.732V268.948H331.176V243.64ZM337.26 259.984C338.388 259.984 339.18 259.828 339.636 259.516C340.116 259.204 340.44 258.568 340.608 257.608C340.776 256.648 340.86 255.052 340.86 252.82C340.86 250.588 340.776 248.992 340.608 248.032C340.44 247.072 340.116 246.436 339.636 246.124C339.18 245.812 338.388 245.656 337.26 245.656C336.348 245.656 335.64 245.836 335.136 246.196C334.632 246.556 334.272 247.156 334.056 247.996C333.912 248.572 333.816 249.232 333.768 249.976C333.744 250.72 333.732 251.668 333.732 252.82C333.732 255.052 333.828 256.552 334.02 257.32C334.236 258.304 334.596 259 335.1 259.408C335.604 259.792 336.324 259.984 337.26 259.984Z" fill="#C4C4C4" fill-opacity="0.75"/>
<rect x="0.5" y="0.5" width="384" height="399" rx="29.5" stroke="white"/>
</svg>
